HIERARCHY
ROOT RootJoint
{
    OFFSET   0.000000   0.000000   0.000000
    CHANNELS 6 Xposition Yposition Zposition Xrotation Yrotation Zrotation
    JOINT pelvis_lowerback
    {
        OFFSET   0.000000   0.093605   0.000000
        CHANNELS 3 Xrotation Yrotation Zrotation
        JOINT lowerback_torso
        {
            OFFSET   0.000000   0.100000   0.000000
            CHANNELS 3 Xrotation Yrotation Zrotation
            JOINT torso_head
            {
                OFFSET   0.000000   0.282350   0.000000
                CHANNELS 3 Xrotation Yrotation Zrotation
                End Site
                {
                    OFFSET   0.000000   0.192650   0.000000
                }
            }
            JOINT rTorso_Clavicle
            {
                OFFSET  -0.001000   0.157500   0.000000
                CHANNELS 3 Xrotation Yrotation Zrotation
                JOINT rShoulder
                {
                    OFFSET  -0.117647   0.000000   0.000000
                    CHANNELS 3 Xrotation Yrotation Zrotation
                    JOINT rElbow
                    {
                        OFFSET  -0.245000   0.000000   0.000000
                        CHANNELS 3 Xrotation Yrotation Zrotation
                        JOINT rWrist
                        {
                            OFFSET  -0.240000   0.000000   0.000000
                            CHANNELS 3 Xrotation Yrotation Zrotation
                            End Site
                            {
                                OFFSET  -0.116353  -0.002500   0.000000
                            }
                        }
                    }
                }
            }
            JOINT lTorso_Clavicle
            {
                OFFSET   0.001000   0.157500   0.000000
                CHANNELS 3 Xrotation Yrotation Zrotation
                JOINT lShoulder
                {
                    OFFSET   0.117647   0.000000   0.000000
                    CHANNELS 3 Xrotation Yrotation Zrotation
                    JOINT lElbow
                    {
                        OFFSET   0.245000   0.000000   0.000000
                        CHANNELS 3 Xrotation Yrotation Zrotation
                        JOINT lWrist
                        {
                            OFFSET   0.240000   0.000000   0.000000
                            CHANNELS 3 Xrotation Yrotation Zrotation
                            End Site
                            {
                                OFFSET   0.116353  -0.002500   0.000000
                            }
                        }
                    }
                }
            }
        }
    }
    JOINT rHip
    {
        OFFSET  -0.100000  -0.051395   0.000000
        CHANNELS 3 Xrotation Yrotation Zrotation
        JOINT rKnee
        {
            OFFSET   0.000000  -0.410000   0.000000
            CHANNELS 3 Xrotation Yrotation Zrotation
            JOINT rAnkle
            {
                OFFSET   0.000000  -0.390000   0.000000
                CHANNELS 3 Xrotation Yrotation Zrotation
                JOINT rToeJoint
                {
                    OFFSET   0.000000  -0.050000   0.130000
                    CHANNELS 3 Xrotation Yrotation Zrotation
                    End Site
                    {
                        OFFSET  -0.010000   0.002000   0.060000
                    }
                }
            }
        }
    }
    JOINT lHip
    {
        OFFSET   0.100000  -0.051395   0.000000
        CHANNELS 3 Xrotation Yrotation Zrotation
        JOINT lKnee
        {
            OFFSET   0.000000  -0.410000   0.000000
            CHANNELS 3 Xrotation Yrotation Zrotation
            JOINT lAnkle
            {
                OFFSET   0.000000  -0.390000   0.000000
                CHANNELS 3 Xrotation Yrotation Zrotation
                JOINT lToeJoint
                {
                    OFFSET   0.000000  -0.050000   0.130000
                    CHANNELS 3 Xrotation Yrotation Zrotation
                    End Site
                    {
                        OFFSET   0.010000   0.002000   0.060000
                    }
                }
            }
        }
    }
}
MOTION
Frames: 15
Frame Time:   0.008333
 -2.376719   0.925631   3.975860   0.000000   0.000000   0.000000   0.000000   0.000000   0.000000   0.000000   0.000000   0.000000   0.000000   0.000000   0.000000   0.000000   0.000000   0.000000   0.000000   0.000000   0.000000   0.000000   0.000000   0.000000   0.000000   0.000000   0.000000   0.000000   0.000000   0.000000   0.000000   0.000000   0.000000   0.000000   0.000000   0.000000   0.000000   0.000000   0.000000   0.000000   0.000000   0.000000   0.000000   0.000000   0.000000   0.000000   0.000000   0.000000   0.000000   0.000000   0.000000   0.000000   0.000000   0.000000   0.000000   0.000000   0.000000   0.000000   0.000000   0.000000   0.000000   0.000000   0.000000
 -2.376805   0.924000   3.974668   0.089402  -0.178564  -0.051894   0.226614   0.146137  -0.039116   0.147394  -0.014615   0.115609  -0.159418   0.105829  -0.032053  -0.149422  -0.445977  -0.998547  -0.545652  -0.274877   0.405900  -0.004157   0.832407   0.001717   0.004934   0.345337   0.523305  -0.285124   0.290885   0.989914  -0.783400   0.379311  -0.496161  -0.004121  -0.901578  -0.004824   0.106143  -0.196899  -0.529924  -1.259494  -0.302036   0.010068   2.649566   0.000688  -0.011114  -1.399043  -0.636481   0.113215  -0.079282   0.000045   0.000772  -0.543503   0.005543   0.148714   1.597136  -0.001369  -0.002380  -3.196658   0.363072   0.242584   0.277969  -0.000792   0.000469
 -2.376651   0.924128   3.973473  -0.001011  -0.254281   0.306718   0.630753   0.211312  -0.392202   0.470461  -0.087444   0.083086  -0.247323   0.208015  -0.070041  -0.303471  -1.035737  -2.028069  -1.054733  -0.653345   0.683774  -0.008584   1.588255   0.001587  -0.004413   0.782289   0.853276  -0.565879   0.676589   2.047301  -1.516601   0.819891  -0.833126  -0.008506  -1.733481  -0.006716   0.188493  -0.514053  -0.853452  -2.478206  -0.611705  -0.445518   5.392088   0.001492  -0.018657  -2.681436  -1.249448   0.197277  -0.083625   0.000036   0.000656  -1.127387   0.062400  -0.238325   3.159945  -0.000766  -0.002218  -5.851636   0.744600   0.389445   0.461778  -0.000787   0.000972
 -2.376733   0.924387   3.972473  -0.163629  -0.329921   0.480591   1.067993   0.251262  -0.551685   0.857732  -0.182195   0.090011  -0.290090   0.303983  -0.110668  -0.463092  -1.692763  -3.216142  -1.527471  -1.089760   0.802607  -0.013227   2.263539   0.001099  -0.008247   1.083884   1.020560  -0.837054   1.111465   3.200010  -2.196945   1.294938  -1.046721  -0.013357  -2.487740  -0.007447   0.271980  -0.742093  -1.068857  -3.672802  -0.897325  -0.698258   7.970444   0.000830  -0.023706  -3.876295  -1.822688   0.261329  -0.087098   0.000029   0.000554  -1.607892   0.114244  -0.418025   4.706615  -0.000592  -0.002173  -8.544267   1.076675   0.570242   0.586022  -0.000776   0.001127
 -2.377009   0.924579   3.971667  -0.364237  -0.407755   0.565257   1.505362   0.265599  -0.646370   1.255558  -0.292917   0.134567  -0.311505   0.393576  -0.140677  -0.630663  -2.376882  -4.474215  -1.968813  -1.553617   0.804400  -0.017289   2.871313   0.000684  -0.007231   1.250771   0.999203  -1.101705   1.563245   4.413344  -2.830829   1.778963  -1.143747  -0.017839  -3.175557  -0.007744   0.356492  -0.873743  -1.119273  -4.858243  -1.163431  -0.869319  10.358237  -0.000142  -0.026763  -4.993048  -2.357887   0.309291  -0.100719   0.000025   0.000551  -1.999756   0.161369  -0.492850   6.170218  -0.000662  -0.002176 -11.109316   1.372738   0.763085   0.688379  -0.000757   0.001156
 -2.377437   0.924651   3.971056  -0.597323  -0.487641   0.602641   1.930781   0.256860  -0.712756   1.645878  -0.416897   0.197110  -0.321559   0.477039  -0.165037  -0.806126  -3.062264  -5.751532  -2.382190  -2.024274   0.728186  -0.020438   3.422882   0.000453  -0.002812   1.318422   0.832818  -1.360611   2.009190   5.652325  -3.423219   2.253177  -1.151665  -0.021486  -3.807662  -0.007906   0.440787  -0.938669  -1.021595  -6.029962  -1.410427  -1.011852  12.563072  -0.000952  -0.028317  -6.036826  -2.857865   0.343403  -0.119451   0.000020   0.000581  -2.313259   0.205124  -0.509457   7.555540  -0.000852  -0.002179 -13.526849   1.637515   0.960378   0.780158  -0.000734   0.001128
 -2.377992   0.924591   3.970648  -0.861909  -0.570699   0.611137   2.337341   0.228473  -0.763944   2.020923  -0.551539   0.267343  -0.325221   0.554758  -0.186619  -0.988197  -3.731815  -7.016535  -2.770197  -2.487842   0.601267  -0.022618   3.927209   0.000410   0.003490   1.319881   0.566644  -1.613346   2.434666   6.887384  -3.977946   2.705490  -1.096727  -0.024135  -4.392606  -0.008063   0.523584  -0.965709  -0.812530  -7.181550  -1.638411  -1.147522  14.598130  -0.001473  -0.028811  -7.012315  -3.324948   0.365820  -0.140384   0.000013   0.000613  -2.554877   0.246430  -0.488686   8.872997  -0.001099  -0.002179 -15.795669   1.874563   1.157813   0.863656  -0.000708   0.001065
 -2.378505   0.924143   3.970624  -1.315227  -0.649222   0.622044   2.760045   0.298708  -0.857861   2.514974  -0.739967   0.427486  -0.299640   0.642295  -0.217506  -1.015255  -4.508631  -7.941879  -2.866648  -3.028063   0.584751  -0.023024   4.533009  -0.001873   0.047771   1.361031  -0.410744  -1.977403   2.762640   7.807183  -4.572328   2.896486  -1.229899  -0.024089  -4.997970  -0.009303   0.538032  -0.834987   0.067580  -8.353391  -1.903413  -1.304493  16.815688  -0.002343  -0.030499  -8.120890  -3.759564   0.391858   0.097758  -0.000004  -0.001208  -2.642721   0.414964  -0.475738  11.374994  -0.001099   0.000315 -17.965978   1.730186   1.248110   0.900552  -0.000603   0.000836
 -2.378964   0.923203   3.971079  -1.801949  -0.743338   0.629273   3.101210   0.335096  -0.934766   2.975793  -0.964387   0.595451  -0.262403   0.729604  -0.243268  -1.045594  -5.262487  -8.659079  -2.949411  -3.554911   0.673487  -0.021314   5.094669  -0.003028   0.107403   1.414509  -1.293311  -2.319565   3.018339   8.520228  -5.126687   3.039819  -1.461704  -0.022393  -5.581148  -0.010688   0.543767  -0.791717   0.844380  -9.582175  -2.147484  -1.465581  18.894198  -0.003299  -0.031353  -9.155471  -4.166020   0.407241   0.313131  -0.000053  -0.002449  -2.437805   0.575035  -0.471824  13.968840  -0.000761   0.001862 -19.975473   1.590012   1.327044   0.967898  -0.000546   0.000623
 -2.379388   0.921688   3.971895  -2.272073  -0.825347   0.633139   3.360488   0.313729  -0.994115   3.366500  -1.228339   0.765350  -0.232277   0.811300  -0.265733  -1.082499  -5.985220  -9.228385  -3.022851  -4.063776   0.830721  -0.018640   5.613467  -0.003356   0.167009   1.447951  -2.004091  -2.638656   3.218884   9.088020  -5.642649   3.153632  -1.751929  -0.019931  -6.135151  -0.012058   0.547124  -0.810755   1.453020 -10.887646  -2.370393  -1.627011  20.794879  -0.004151  -0.030938 -10.122695  -4.545723   0.413553   0.508426  -0.000127  -0.003209  -2.007983   0.721292  -0.475508  16.498834  -0.000203   0.003001 -21.845773   1.456439   1.396178   1.039182  -0.000498   0.000450
 -2.379792   0.919540   3.972978  -2.718100  -0.881227   0.634187   3.553856   0.235597  -1.038707   3.691904  -1.530528   0.936180  -0.211762   0.886954  -0.285425  -1.125274  -6.680160  -9.689466  -3.087828  -4.556469   1.030123  -0.015668   6.091556  -0.003192   0.224449   1.452499  -2.573239  -2.935115   3.372227   9.550399  -6.123139   3.242894  -2.074657  -0.017243  -6.659953  -0.013254   0.549214  -0.873344   1.926369 -12.257982  -2.572401  -1.786741  22.522995  -0.004792  -0.029402 -11.027574  -4.900077   0.412405   0.684398  -0.000216  -0.003589  -1.403291   0.855101  -0.484596  18.934970   0.000510   0.004101 -23.588547   1.329579   1.456447   1.107667  -0.000452   0.000322
 -2.380188   0.916717   3.974257  -3.141176  -0.906362   0.633079   3.696096   0.107146  -1.071316   3.963722  -1.866202   1.107043  -0.199260   0.956959  -0.302631  -1.173033  -7.350149 -10.069989  -3.145116  -5.034319   1.253615  -0.012770   6.531335  -0.002771   0.278736   1.425463  -3.036308  -3.209746   3.485239   9.934835  -6.570847   3.310937  -2.412557  -0.014627  -7.156549  -0.014184   0.550918  -0.969840   2.300177 -13.676038  -2.754139  -1.943829  24.092039  -0.005186  -0.027076 -11.874191  -5.230549   0.405250   0.843074  -0.000307  -0.003693  -0.662209   0.977730  -0.496858  21.269261   0.001329   0.005249 -25.213056   1.209475   1.508856   1.172030  -0.000409   0.000235
 -2.380584   0.913191   3.975678  -3.543798  -0.901115   0.630465   3.799123  -0.063878  -1.094399   4.192775  -2.229173   1.276936  -0.192808   1.021773  -0.317625  -1.224811  -7.996595 -10.389520  -3.195464  -5.497694   1.488939  -0.010133   6.935464  -0.002241   0.329297   1.367448  -3.420844  -3.463690   3.564194  10.260617  -6.988240   3.360722  -2.754072  -0.012233  -7.626068  -0.014811   0.552855  -1.093957   2.601645 -15.125016  -2.916539  -2.097927  25.516292  -0.005347  -0.024297 -12.666242  -5.538616   0.393347   0.986445  -0.000393  -0.003610   0.183357   1.090092  -0.510432  23.499027   0.002207   0.006402 -26.727618   1.096046   1.554369   1.231884  -0.000367   0.000179
 -2.381058   0.909196   3.976283  -3.438877  -0.666811   0.543141   3.404837  -0.213125  -1.019611   4.504135  -2.625123   1.522986  -0.235708   1.050373  -0.340670  -0.920889  -8.872842 -10.467737  -2.889854  -6.283783   2.086071  -0.001986   8.033562  -0.009642   0.389933   1.164011  -4.499825  -3.644475   3.664422  10.408278  -7.220622   3.240946  -3.644360  -0.004286  -8.822402  -0.016524   0.615976  -0.844519   3.587520 -17.352260  -3.195008  -2.227159  27.161540  -0.005228  -0.020923 -13.441962  -6.071666   0.300370   1.102730  -0.000368  -0.003537   0.429875   1.096965  -0.344363  25.604522   0.002437   0.009726 -28.410580   0.713363   1.387884   1.403153  -0.000216  -0.000108
 -2.381561   0.904675   3.976533  -3.341913  -0.305859   0.439655   3.100661  -0.416439  -0.925391   4.824799  -3.074289   1.789299  -0.270680   1.082709  -0.354955  -0.633994  -9.721069 -10.330462  -2.581677  -7.041935   2.802837   0.007360   9.062364  -0.015747   0.474393   1.071484  -5.374215  -3.802247   3.680249  10.339352  -7.435068   3.076234  -4.642568   0.005152  -9.978386  -0.016302   0.693552  -0.850704   4.331476 -19.620079  -3.444287  -2.396023  28.680866  -0.004197  -0.016326 -14.168453  -6.571172   0.204469   1.199534  -0.000336  -0.003219   0.709694   1.091595  -0.104610  27.545690   0.002822   0.014138 -29.987070   0.359054   1.219831   1.536756  -0.000171  -0.000115
